<svg xmlns="http://www.w3.org/2000/svg" xmlns:xlink="http://www.w3.org/1999/xlink" viewBox="0 0 3085.6 2250"><defs><style>.cls-1{opacity:0.5;fill:url(#Безымянный_градиент_71);}.cls-2{fill:#a2dff2;}.cls-3{fill:#96cfe0;}.cls-4{fill:#2e5b9a;}.cls-5{fill:#f09959;}.cls-6{fill:#e38540;}.cls-7{fill:#75a1de;}.cls-8{fill:#a86b48;}.cls-9{fill:#3e6bab;}.cls-10{fill:#f0ceb4;}.cls-11{fill:#a8ceff;}.cls-12{fill:#f7a96f;}.cls-13{fill:#b7e1ff;}.cls-14{fill:#fff;}.cls-15{fill:#9cd499;}</style><linearGradient id="Безымянный_градиент_71" x1="2496.64" y1="2765.58" x2="4491.16" y2="771.06" gradientUnits="userSpaceOnUse"><stop offset="0" stop-color="#4659c1"/><stop offset="1" stop-color="#3ad0de"/></linearGradient></defs><title>developer</title><g id="Layer_1" data-name="Layer 1"><path class="cls-1" d="M4848.94,2453.89c281-268.28,348.18-816,87.87-1196.86-217-317.42-616.61-643.93-1120.2-739.11S2871.82,422.84,2681,548.58c-156.15,102.9-83.57,246.22-34.6,368,65.37,162.57,75,291.65-193.91,527.82-307,269.6-390.07,370.8-405.46,631.49-12.51,212,164.5,497.21,396.77,538.08,323.36,56.89,443.39-93.38,759.74-194.69,253.78-81.27,429.8-43.26,659.89,112.49S4436.51,2847.59,4848.94,2453.89Z" transform="translate(-2014.4 -450)"/></g><g id="Слой_1" data-name="Слой 1"><path class="cls-2" d="M3781.45,1678.84c-70.28,142.67-158.39,532.52-182.43,553.87s-162.88,104.14-186.91,144.19-13.35,26.71-2.67,29.38,614.14,5.34,614.14,5.34-69.42-413.88-77.43-416.55S3781.45,1678.84,3781.45,1678.84Z" transform="translate(-2014.4 -450)"/><path class="cls-3" d="M3681.53,2409.68c110.83.78,227.78,1.39,292.17,1.7l-88.16-527.17c-47-91.15-104.09-205.37-104.09-205.37-8.86,18-18,39.91-27.27,64.51-9.14,396,47.89,506.93,5.06,577.48C3725.81,2375.88,3695.3,2400.51,3681.53,2409.68Z" transform="translate(-2014.4 -450)"/><path class="cls-4" d="M4934.5,2438H2036.75a22.36,22.36,0,0,1,0-44.71H4934.5a22.36,22.36,0,1,1,0,44.71Z" transform="translate(-2014.4 -450)"/><path class="cls-2" d="M4151.53,1506.65c100.23,92.52,323.34,180.26,323.34,180.26s33.89,313.18,10.77,490.51-10.29,213.32-10.29,213.32h-460s-61.74-85.68-174.77-352.1c-72-169.62-59.11-359.8-59.11-359.8l280.13-125.93Z" transform="translate(-2014.4 -450)"/><path class="cls-3" d="M4015.33,2390.74h460s-12.84-36,10.29-213.32c19-146-.58-384.14-8.1-463.68l-41.84-17.93c-105,30.26-165.56,186.92-183.36,340-11.91,102.44-181.62,203.28-292.63,258.8C3996.18,2364.15,4015.33,2390.74,4015.33,2390.74Z" transform="translate(-2014.4 -450)"/><path class="cls-4" d="M3902.54,1185.19c-55.45,123.51,11.11,237.92,9.09,233.1s83.93-208.53,83.93-208.53Z" transform="translate(-2014.4 -450)"/><path class="cls-5" d="M4112.68,1276.52,4183,1533.58a23.25,23.25,0,0,1-4.45,20.83c-16.49,20.32-40,62.11-87.36,75.52-9.21,2.61-20.56,3.31-29.75,3.34a20.08,20.08,0,0,1-19.82-16.25l-47.12-243.81Z" transform="translate(-2014.4 -450)"/><path class="cls-6" d="M4099.25,1298l-25.7,10.53-79,64.67,42.43,216.16C4108.88,1544.52,4119.37,1514.24,4099.25,1298Z" transform="translate(-2014.4 -450)"/><path class="cls-5" d="M4110.1,1390.23c-15.57,84.57-78.84,141.76-141.34,127.75s-92.3-68.75-85-178.49c5.75-86.1,48.21-179.68,110.7-165.66S4125.66,1305.67,4110.1,1390.23Z" transform="translate(-2014.4 -450)"/><path class="cls-2" d="M4474.87,1686.91c93.07,21,110.37,210.06,140.63,409.45,3.49,22.94,21.37,217.18,21.37,217.18s1.78,35.61-33.83,53.41c-30.42,15.21-42.72,26.7-219,28.48-169.26,1.71-387.5-5.34-387.5-5.34s-1.93-63,15.43-93.76c26.11-46.28,293.74-112.74,318.66-116.3,3.56-49.85-24.58-230.2,14.24-352.48,26.71-84.12,55.41-128.18,91.38-139.7C4448.28,1684,4461.07,1683.79,4474.87,1686.91Z" transform="translate(-2014.4 -450)"/><path class="cls-3" d="M4092.29,2393.93c83.44,1.25,198,2.45,291.79,1.5,176.24-1.78,188.54-13.27,219-28.48,35.61-17.8,37.39-48.07,37.39-48.07s-18-206.68-21.36-229.64c-19.59-133.52-40.75-286.3-90-360,46.29,135.68,53.74,250.15,54.57,299,.42,24.76-1.86,58.67-9.09,82.36-8,26.26-28.48,42.72-60.53,33.82-64.09-17.8-144.2,19.59-144.2,19.59s60.53-21.37,117.5-1.78,174.46,149.53,46.28,197.6C4494.39,2374.54,4259.46,2386.53,4092.29,2393.93Z" transform="translate(-2014.4 -450)"/><path class="cls-3" d="M4026.25,2302.27s23.74-40.35,72.4-40.35,45.1,79.51,38,105.62-35.61,27.3-35.61,27.3l-104.44-4.75Z" transform="translate(-2014.4 -450)"/><rect class="cls-7" x="1229.54" y="1921.67" width="694.49" height="41.29" rx="7.49"/><path class="cls-5" d="M4013.2,2307c-102.07-36.8-128.84-22.95-151.91-29.68-57-16.61-71.21-2.37-108,98.51-7.33,20.1,14.24,21.36,35.6,21.36s47.48-41.54,55.78-46.28,30.86-7.12,30.86-7.12-7.12,0-17.8,21.36-23.74,29.67-7.12,29.67,19-27.3,49.84-21.36,19,21.36,96.13,20.17,135.37,0,134.11-46.28c-1.18-43.91,3.68-65.87-38-73.58C4060.67,2267.85,4013.2,2307,4013.2,2307Z" transform="translate(-2014.4 -450)"/><path class="cls-8" d="M4014.54,2307c68.24-7.72,48.21,77.29,41.09,84.41s38,2.5,38,2.5,21.2-34.1,3.4-73.27-53.41-40.94-53.41-40.94l-30.26,16.61Z" transform="translate(-2014.4 -450)"/><path class="cls-4" d="M4085.79,2299.62c-.88,10.53-18.78,17.63-40,15.86s-37.68-11.75-36.8-22.28,18.79-17.64,40-15.87S4086.67,2289.08,4085.79,2299.62Z" transform="translate(-2014.4 -450)"/><path class="cls-9" d="M4080.36,2294.38c-.78,9.41-16.78,15.76-35.73,14.17s-33.66-10.49-32.87-19.9,16.78-15.76,35.72-14.18S4081.15,2285,4080.36,2294.38Z" transform="translate(-2014.4 -450)"/><path class="cls-10" d="M4068.53,2290c-.57,6.78-12.08,11.35-25.72,10.21s-24.23-7.56-23.67-14.33,12.08-11.35,25.72-10.21S4069.09,2283.24,4068.53,2290Z" transform="translate(-2014.4 -450)"/><path class="cls-7" d="M3237.91,2282.55H2574.67c-34.89,0-64.8-25.27-71.1-60.06L2417.07,1745c-8.16-45,25.95-86.53,71.1-86.53h663.24c34.89,0,64.8,25.26,71.11,60L3309,2196C3317.17,2241,3283.07,2282.55,3237.91,2282.55Z" transform="translate(-2014.4 -450)"/><path class="cls-11" d="M3268.9,2197.8l-88.28-467.6c-6.43-34.07-37-58.81-72.57-58.81H2434a74.5,74.5,0,0,0-16.92,62.34l89.54,487.5a74.85,74.85,0,0,0,73.6,61.32h616.08C3242.42,2282.55,3277.23,2241.9,3268.9,2197.8Z" transform="translate(-2014.4 -450)"/><path class="cls-7" d="M3109,2346.49h-125.9c-22.46,0-40.66-20-40.66-44.67v-230.2c0-39.27-29-71.09-64.71-71.09h-65.78c-35.73,0-64.71,31.82-64.71,71.09v257.8c0,44.08,32.67,79.74,72.8,79.47l343.62-2.36C3163.63,2373.37,3139.16,2346.49,3109,2346.49Z" transform="translate(-2014.4 -450)"/><path class="cls-11" d="M2752.22,2076.79v253.85a78.24,78.24,0,0,0,72.56,78l335.35-2.09c0-5.5-26.47-15.51-59.12-15.51h-136.2a44,44,0,0,1-44-44V2076.79a70,70,0,0,0-70-70h-28.61A70,70,0,0,0,2752.22,2076.79Z" transform="translate(-2014.4 -450)"/><path class="cls-5" d="M3454.16,2317.23c50.68-28.15,112.62-18.77,135.15,9.39s26.27,46.92-24.4,46.92-152,3.76-168.94,1.88S3454.16,2317.23,3454.16,2317.23Z" transform="translate(-2014.4 -450)"/><path class="cls-5" d="M3529.24,2300.34c54.44-13.14,91.63,18.54,137,48.8,39.42,26.28,47.34,51.83,3.76,30-63.82-31.9-101.36-35.66-101.36-35.66Z" transform="translate(-2014.4 -450)"/><path class="cls-5" d="M3479.66,2317.06c-27.49,0-51.48-8.77-70.89-7.15s-80.85,64.68-71.15,69.53a20.93,20.93,0,0,0,2.27,1,33.09,33.09,0,0,0,39.27-13.78c8.7-14,22.84-30.19,39.31-24.38,27.49,9.71,56.34,8.77,56.34,8.77Z" transform="translate(-2014.4 -450)"/><path class="cls-12" d="M3463.55,2384.81c-28.16-11.27,16.89-105.12,31.91-105.12s71.32,45,71.32,45-13.24,7.47-58.18-7.51c-11.27-3.75-20.65,60.07-33.79,67.58S3463.55,2384.81,3463.55,2384.81Z" transform="translate(-2014.4 -450)"/><path class="cls-4" d="M3883.75,1388.91c-2.61,103.35,32.6,120.82,57.23,134.86s130.73-9.15,146.31-34.71c39.84-65.39,6.3-126.37,15.21-125.45s17.06,26.38,40.3,59.42c2.17,3.08,17.26,23.49,18.05,16.7,10.79-92.54,59-121.28,47.5-214.88-8.45-69-52.26-63.53-52.26-63.53s-28.25-57.74-116.21-51.18c-58.94,4.39-111.48,27.35-172.22,43s71.87,153.33,150.67,103,39.89,60.5,52.32,69.1,6,1.14,11.68,57.84-66.31,93.73-86.95,98.58c-66,15.52-77,4.64-91.47-20.21C3891.37,1439.9,3883.75,1388.91,3883.75,1388.91Z" transform="translate(-2014.4 -450)"/><path class="cls-5" d="M4156.91,1356.91c-7.57,26-26.07,42.87-41.32,37.58s-15.71-26.45-13.91-56.73c1.62-27.3,26.07-42.88,41.32-37.59S4164.48,1330.86,4156.91,1356.91Z" transform="translate(-2014.4 -450)"/><path class="cls-13" d="M130.55,572.34H706.94a4.6,4.6,0,0,1,4.6,4.6V832.38a4.6,4.6,0,0,1-4.6,4.6H130.55a4.6,4.6,0,0,1-4.6-4.6V576.95A4.61,4.61,0,0,1,130.55,572.34Z"/><rect class="cls-14" x="141.96" y="641.87" width="553.57" height="182.69" rx="3.72"/><rect class="cls-14" x="150.09" y="591.82" width="22.94" height="20.65" rx="2.06"/><rect class="cls-14" x="191.8" y="591.82" width="22.94" height="20.65" rx="2.06"/><rect class="cls-14" x="233.52" y="591.82" width="22.94" height="20.65" rx="2.06"/><path class="cls-13" d="M2687.41,1131.91H2394.6a8.76,8.76,0,1,1,0-17.52h292.81a8.76,8.76,0,1,1,0,17.52Z" transform="translate(-2014.4 -450)"/><path class="cls-13" d="M2467.18,1267.06H2174.36a8.76,8.76,0,0,1,0-17.52h292.82a8.76,8.76,0,0,1,0,17.52Z" transform="translate(-2014.4 -450)"/><rect class="cls-13" x="473.42" y="799.54" width="36.29" height="17.52" rx="1.24"/><rect class="cls-13" x="519.1" y="799.54" width="36.29" height="17.52" rx="1.24"/><path class="cls-13" d="M2690.23,1170.08h-484.9a5.95,5.95,0,0,1,0-11.89h484.9a5.95,5.95,0,0,1,0,11.89Z" transform="translate(-2014.4 -450)"/><path class="cls-13" d="M2690.23,1195.73h-484.9a5.95,5.95,0,0,1,0-11.89h484.9a5.95,5.95,0,0,1,0,11.89Z" transform="translate(-2014.4 -450)"/><path class="cls-7" d="M262.88,758.15H839.27a4.6,4.6,0,0,1,4.6,4.6V1018.2a4.6,4.6,0,0,1-4.6,4.6H262.88a4.61,4.61,0,0,1-4.61-4.61V762.76A4.6,4.6,0,0,1,262.88,758.15Z"/><rect class="cls-14" x="274.28" y="827.68" width="553.57" height="182.69" rx="3.72"/><rect class="cls-14" x="282.41" y="777.63" width="22.94" height="20.65" rx="2.06"/><rect class="cls-14" x="324.12" y="777.63" width="22.94" height="20.65" rx="2.06"/><rect class="cls-14" x="365.83" y="777.63" width="22.94" height="20.65" rx="2.06"/><path class="cls-7" d="M2819.74,1317.73H2526.92a8.76,8.76,0,0,1,0-17.52h292.82a8.76,8.76,0,0,1,0,17.52Z" transform="translate(-2014.4 -450)"/><path class="cls-7" d="M2599.5,1452.87H2306.69a8.76,8.76,0,0,1,0-17.52H2599.5a8.76,8.76,0,1,1,0,17.52Z" transform="translate(-2014.4 -450)"/><rect class="cls-7" x="605.74" y="985.35" width="36.29" height="17.52" rx="1.24"/><rect class="cls-7" x="651.42" y="985.35" width="36.29" height="17.52" rx="1.24"/><path class="cls-7" d="M2822.55,1355.89H2337.66a5.94,5.94,0,1,1,0-11.88h484.89a5.94,5.94,0,0,1,0,11.88Z" transform="translate(-2014.4 -450)"/><path class="cls-7" d="M2822.55,1381.54H2337.66a5.94,5.94,0,1,1,0-11.88h484.89a5.94,5.94,0,0,1,0,11.88Z" transform="translate(-2014.4 -450)"/><path class="cls-15" d="M3066.61,1408.05a76,76,0,1,1-76-76A76,76,0,0,1,3066.61,1408.05Z" transform="translate(-2014.4 -450)"/><path class="cls-14" d="M2983.05,1436.13h-.22a5.82,5.82,0,0,1-4.13-2l-20.64-23.46a5.79,5.79,0,0,1,8.69-7.65l16.61,18.88,39.75-38.9a5.78,5.78,0,0,1,8.09,8.27l-44.1,43.17A5.81,5.81,0,0,1,2983.05,1436.13Z" transform="translate(-2014.4 -450)"/><rect class="cls-7" x="1033.4" y="387.21" width="528.38" height="217.73" rx="9.34"/><path class="cls-7" d="M3111.62,1022.09v120.13L3250,1003.79S3114.43,1022.09,3111.62,1022.09Z" transform="translate(-2014.4 -450)"/><rect class="cls-14" x="1060.73" y="408.8" width="473.72" height="174.56" rx="7.92"/><path class="cls-7" d="M3333.1,902h-214a9.39,9.39,0,0,1,0-18.77h214a9.39,9.39,0,1,1,0,18.77Z" transform="translate(-2014.4 -450)"/><rect class="cls-7" x="1095.34" y="477.31" width="407.31" height="10.54" rx="2.16"/><rect class="cls-7" x="1095.34" y="497.73" width="407.31" height="10.54" rx="2.16"/><rect class="cls-7" x="1397.43" y="555.2" width="22.94" height="20.65" rx="2.06"/><rect class="cls-7" x="1439.14" y="555.2" width="22.94" height="20.65" rx="2.06"/><rect class="cls-7" x="1480.85" y="555.2" width="22.94" height="20.65" rx="2.06"/></g></svg>